<svg width="216" height="58" viewBox="0 0 216 58" fill="none" xmlns="http://www.w3.org/2000/svg">
<path d="M3.78711 11.392L10.7884 23.4292H41.1336L28.3741 11.392H3.78711Z" fill="#00975A"/>
<path d="M65.5454 2.84073L48.5909 5.53706L35.3555 39.9827L54.8153 30.7478L65.5454 2.84073Z" fill="#00463D"/>
<path d="M31.6355 53.9844L37.2093 44.5954L25.4887 24.0551L22.1289 37.3442L31.6355 53.9844Z" fill="#4DB75D"/>
<path d="M73.0039 26.53C73.0039 20.0877 77.7912 16.5921 82.695 16.5921C87.5988 16.5921 92.9395 20.0492 92.0073 28.0804H76.8687C77.4999 31.393 80.1314 33.0878 83.4427 33.0878C85.5207 33.0878 87.3754 32.4234 88.7834 31.1041L90.7158 33.0878C89.0456 35.1486 86.2587 36.4775 82.996 36.4775C77.762 36.4775 73.0136 32.9049 73.0136 26.5396L73.0039 26.53ZM88.3659 25.0566C88.1425 21.744 85.4722 20.0492 82.7241 20.0492C79.976 20.0492 77.4125 21.667 76.8201 25.0566H88.3659Z" fill="white"/>
<path d="M110.486 43.0931V33.0493H110.38C109.671 34.5612 107.224 36.4679 103.699 36.4679C99.1349 36.4679 94.3477 33.1167 94.3477 26.53C94.3477 19.9432 99.1349 16.5921 103.699 16.5921C107.224 16.5921 109.671 18.5084 110.38 20.0106H110.486V16.958H114.565V43.0931H110.486ZM104.476 32.7893C107.593 32.7893 110.603 30.6515 110.603 26.53C110.603 22.4084 107.593 20.2706 104.476 20.2706C101.359 20.2706 98.3872 22.4084 98.3872 26.53C98.3872 30.6515 101.397 32.7893 104.476 32.7893Z" fill="white"/>
<path d="M136.325 36.102H132.247V33.2323C131.208 34.9945 129.169 36.4679 126.052 36.4679C122.08 36.4679 118.662 34.0027 118.662 28.2248V16.958H122.779V27.5604C122.779 30.9115 124.634 32.7893 127.489 32.7893C130.344 32.7893 132.237 30.9115 132.237 27.5604V16.958H136.316V36.102H136.325Z" fill="white"/>
<path d="M139.48 26.53C139.48 19.9432 144.268 16.5921 148.832 16.5921C152.357 16.5921 154.804 18.5084 155.512 20.0106H155.619V16.958H159.698V36.102H155.619V33.0493H155.512C154.804 34.5612 152.357 36.4679 148.832 36.4679C144.268 36.4679 139.48 33.1167 139.48 26.53ZM149.609 32.7893C152.726 32.7893 155.736 30.6515 155.736 26.53C155.736 22.4084 152.726 20.2706 149.609 20.2706C146.491 20.2706 143.52 22.4084 143.52 26.53C143.52 30.6515 146.53 32.7893 149.609 32.7893Z" fill="white"/>
<path d="M165.536 31.4605V20.2322H162.865V16.958H165.536V12.0661H169.653V16.958H173.547V20.2322H169.653V30.719C169.653 31.8264 170.245 32.6738 171.77 32.6738C172.216 32.6738 172.848 32.5968 173.547 32.3464V35.5531C172.838 36.1405 171.576 36.3235 170.537 36.3235C167.604 36.3235 165.526 34.8886 165.526 31.4605H165.536Z" fill="white"/>
<path d="M175.779 26.53C175.779 20.0877 180.868 16.5921 185.878 16.5921C190.889 16.5921 195.977 20.0877 195.977 26.53C195.977 32.9723 190.889 36.4679 185.878 36.4679C180.868 36.4679 175.779 32.9723 175.779 26.53ZM185.878 32.7508C189.034 32.7508 191.889 30.4685 191.889 26.53C191.889 22.5914 189.034 20.3092 185.878 20.3092C182.722 20.3092 179.829 22.5914 179.829 26.53C179.829 30.4685 182.722 32.7508 185.878 32.7508Z" fill="white"/>
<path d="M199.125 16.958H203.203V21.8884C203.873 19.0188 205.806 16.5921 209.331 16.5921C209.777 16.5921 210.146 16.6306 210.554 16.7365V20.598C210.146 20.521 209.816 20.4921 209.37 20.4921C205.699 20.4921 203.213 23.1403 203.213 27.1559V36.1019H199.135V16.958H199.125Z" fill="white"/>
<path d="M79.8984 42.2843H80.3645V42.8524H79.8984V42.2843ZM79.8984 45.4332H80.3645V54.0518H79.8984V45.4332Z" fill="white"/>
<path d="M99.6191 45.4332H100.085V47.1088C100.483 46.2421 101.493 45.2695 103.261 45.2695C105.135 45.2695 106.756 46.4347 106.756 48.9866V54.0614H106.29V49.0058C106.29 46.7139 104.882 45.7413 103.231 45.7413C101.581 45.7413 100.085 46.7236 100.085 49.0058V54.0614H99.6191V45.4428V45.4332Z" fill="white"/>
<path d="M124.596 45.4332H125.11L128.538 53.3585L131.966 45.4332H132.481L128.732 54.0518H128.334L124.586 45.4332H124.596Z" fill="white"/>
<path d="M150.252 49.728C150.252 46.8391 152.33 45.2695 154.495 45.2695C156.661 45.2695 158.797 46.8969 158.593 49.8918H150.737C150.825 52.3955 152.641 53.7437 154.651 53.7437C155.884 53.7437 157.01 53.2429 157.642 52.4051L157.972 52.7229C157.156 53.7148 155.865 54.2348 154.592 54.2348C152.34 54.2348 150.242 52.6459 150.242 49.7377L150.252 49.728ZM158.176 49.4295C158.108 47.0895 156.399 45.751 154.476 45.751C152.553 45.751 150.864 47.0317 150.728 49.4295H158.166H158.176Z" fill="white"/>
<path d="M176.691 51.9814L177.157 51.8466C177.478 53.1562 178.459 53.734 179.546 53.734C180.634 53.734 181.75 53.1851 181.75 51.8947C181.75 50.8162 181.003 50.3732 179.663 49.8051L179.158 49.5932C177.721 48.9769 177.148 48.1873 177.148 47.2917C177.148 46.1169 178.119 45.2695 179.468 45.2695C180.643 45.2695 181.547 45.8954 181.877 46.8969L181.459 47.0799C181.139 46.3384 180.575 45.751 179.468 45.751C178.517 45.751 177.633 46.2132 177.633 47.2725C177.633 48.0525 178.119 48.611 179.284 49.1117L179.682 49.2947C181.372 50.0073 182.226 50.5755 182.226 51.8947C182.226 53.5511 180.789 54.2155 179.517 54.2155C177.992 54.2155 176.944 53.3007 176.672 51.9814H176.691Z" fill="white"/>
<path d="M201.531 53.0118V45.8665H200.482V45.4332H201.531V43.228H202.017V45.4332H203.658V45.8665H202.017V52.8481C202.017 53.4644 202.298 53.7148 202.832 53.7148C203.036 53.7148 203.269 53.6859 203.599 53.5318V53.9651C203.318 54.1288 203.046 54.1674 202.813 54.1674C202.026 54.1674 201.521 53.7822 201.521 53.0214L201.531 53.0118Z" fill="white"/>
</svg>
