<svg width="220" height="60" viewBox="0 0 220 60" fill="none" xmlns="http://www.w3.org/2000/svg">
<path d="M3.85742 11.7849L10.9883 24.2372H41.8955L28.8997 11.7849H3.85742Z" fill="white"/>
<path d="M66.7607 2.93872L49.4922 5.72803L36.0117 41.3614L55.8319 31.8081L66.7607 2.93872Z" fill="white"/>
<path d="M32.2236 55.8458L37.9007 46.1331L25.9631 24.8845L22.541 38.6318L32.2236 55.8458Z" fill="white"/>
<path d="M74.3555 27.4449C74.3555 20.7804 79.2314 17.1643 84.226 17.1643C89.2206 17.1643 94.6603 20.7406 93.7108 29.0487H78.2918C78.9347 32.4756 81.615 34.2289 84.9875 34.2289C87.1041 34.2289 88.9931 33.5415 90.4272 32.1768L92.3954 34.2289C90.6943 36.3607 87.8557 37.7355 84.5326 37.7355C79.2017 37.7355 74.3654 34.0396 74.3654 27.4549L74.3555 27.4449ZM90.0019 25.9207C89.7745 22.4939 87.0546 20.7406 84.2557 20.7406C81.4567 20.7406 78.8457 22.4142 78.2424 25.9207H90.0019Z" fill="white"/>
<path d="M112.531 44.5792V34.189H112.423C111.701 35.753 109.208 37.7255 105.618 37.7255C100.97 37.7255 96.0938 34.2588 96.0938 27.4449C96.0938 20.631 100.97 17.1643 105.618 17.1643C109.208 17.1643 111.701 19.1467 112.423 20.7008H112.531V17.5429H116.685V44.5792H112.531ZM106.409 33.9201C109.584 33.9201 112.65 31.7086 112.65 27.4449C112.65 23.1812 109.584 20.9697 106.409 20.9697C103.235 20.9697 100.208 23.1812 100.208 27.4449C100.208 31.7086 103.274 33.9201 106.409 33.9201Z" fill="white"/>
<path d="M138.85 37.3468H134.696V34.3782C133.638 36.2012 131.561 37.7254 128.386 37.7254C124.341 37.7254 120.859 35.1751 120.859 29.198V17.5427H125.053V28.5107C125.053 31.9774 126.942 33.9199 129.85 33.9199C132.757 33.9199 134.686 31.9774 134.686 28.5107V17.5427H138.84V37.3468H138.85Z" fill="white"/>
<path d="M142.064 27.4449C142.064 20.631 146.94 17.1643 151.589 17.1643C155.179 17.1643 157.671 19.1467 158.393 20.7008H158.502V17.5429H162.656V37.3469H158.502V34.189H158.393C157.671 35.753 155.179 37.7255 151.589 37.7255C146.94 37.7255 142.064 34.2588 142.064 27.4449ZM152.38 33.9201C155.555 33.9201 158.621 31.7086 158.621 27.4449C158.621 23.1812 155.555 20.9697 152.38 20.9697C149.205 20.9697 146.179 23.1812 146.179 27.4449C146.179 31.7086 149.245 33.9201 152.38 33.9201Z" fill="white"/>
<path d="M168.601 32.5453V20.9298H165.881V17.5428H168.601V12.4822H172.794V17.5428H176.76V20.9298H172.794V31.7782C172.794 32.9238 173.397 33.8005 174.95 33.8005C175.405 33.8005 176.048 33.7208 176.76 33.4618V36.779C176.038 37.3867 174.752 37.576 173.694 37.576C170.707 37.576 168.591 36.0917 168.591 32.5453H168.601Z" fill="white"/>
<path d="M179.035 27.4449C179.035 20.7804 184.218 17.1643 189.321 17.1643C194.424 17.1643 199.607 20.7804 199.607 27.4449C199.607 34.1094 194.424 37.7255 189.321 37.7255C184.218 37.7255 179.035 34.1094 179.035 27.4449ZM189.321 33.8802C192.535 33.8802 195.443 31.5193 195.443 27.4449C195.443 23.3705 192.535 21.0096 189.321 21.0096C186.107 21.0096 183.159 23.3705 183.159 27.4449C183.159 31.5193 186.107 33.8802 189.321 33.8802Z" fill="white"/>
<path d="M202.811 17.5429H206.964V22.6433C207.647 19.6747 209.615 17.1643 213.205 17.1643C213.66 17.1643 214.036 17.2042 214.451 17.3137V21.3084C214.036 21.2287 213.7 21.1988 213.245 21.1988C209.506 21.1988 206.974 23.9383 206.974 28.0924V37.3469H202.82V17.5429H202.811Z" fill="white"/>
<path d="M81.377 43.7424H81.8517V44.3302H81.377V43.7424ZM81.377 46.9999H81.8517V55.9158H81.377V46.9999Z" fill="white"/>
<path d="M101.465 46.9999H101.94V48.7333C102.345 47.8367 103.374 46.8306 105.174 46.8306C107.083 46.8306 108.734 48.0359 108.734 50.6758V55.9257H108.259V50.6958C108.259 48.3248 106.825 47.3187 105.144 47.3187C103.463 47.3187 101.94 48.3348 101.94 50.6958V55.9257H101.465V47.0099V46.9999Z" fill="white"/>
<path d="M126.902 47H127.427L130.918 55.1986L134.409 47H134.933L131.116 55.9158H130.71L126.893 47H126.902Z" fill="white"/>
<path d="M153.031 51.4429C153.031 48.4543 155.148 46.8306 157.353 46.8306C159.559 46.8306 161.735 48.5141 161.527 51.6122H153.526C153.615 54.2023 155.464 55.597 157.512 55.597C158.768 55.597 159.915 55.0789 160.558 54.2123L160.894 54.541C160.063 55.5671 158.748 56.105 157.452 56.105C155.158 56.105 153.021 54.4613 153.021 51.4529L153.031 51.4429ZM161.102 51.1341C161.033 48.7134 159.292 47.3287 157.334 47.3287C155.375 47.3287 153.654 48.6536 153.516 51.1341H161.092H161.102Z" fill="white"/>
<path d="M179.963 53.774L180.438 53.6345C180.764 54.9893 181.763 55.587 182.871 55.587C183.979 55.587 185.116 55.0192 185.116 53.6843C185.116 52.5686 184.354 52.1103 182.99 51.5226L182.475 51.3034C181.012 50.6659 180.428 49.849 180.428 48.9225C180.428 47.7072 181.417 46.8306 182.792 46.8306C183.988 46.8306 184.908 47.4781 185.245 48.5141L184.819 48.7034C184.493 47.9363 183.919 47.3287 182.792 47.3287C181.823 47.3287 180.922 47.8068 180.922 48.9026C180.922 49.7095 181.417 50.2873 182.604 50.8053L183.009 50.9946C184.73 51.7318 185.601 52.3195 185.601 53.6843C185.601 55.3977 184.137 56.0851 182.841 56.0851C181.288 56.0851 180.22 55.1387 179.943 53.774H179.963Z" fill="white"/>
<path d="M205.263 54.84V47.4483H204.195V47H205.263V44.7188H205.758V47H207.429V47.4483H205.758V54.6706C205.758 55.3082 206.045 55.5672 206.589 55.5672C206.796 55.5672 207.034 55.5373 207.37 55.3779V55.8262C207.083 55.9955 206.806 56.0354 206.569 56.0354C205.768 56.0354 205.254 55.6369 205.254 54.8499L205.263 54.84Z" fill="white"/>
</svg>
